<svg data-v-423bf9ae="" xmlns="http://www.w3.org/2000/svg" viewBox="0 0 414 90" class="iconLeft"><!----><!----><!----><g data-v-423bf9ae="" id="6e715745-6f9e-44ba-a173-d722094cd027" fill="#361C00" transform="matrix(5.71973320392212,0,0,5.71973320392212,105.76537895207514,-8.0505274423654)"><path d="M0.74 14.35L7.94 14.35L7.94 12.01L7.17 12.01L7.17 13.80L2.77 13.80L2.77 9.55L5.89 9.55L5.89 10.70L6.55 10.70L6.55 7.85L5.89 7.85L5.89 9.00L2.77 9.00L2.77 5.12L7.04 5.12L7.04 6.83L7.81 6.83L7.81 4.58L0.74 4.58L0.74 5.08L1.86 5.08L1.86 13.85L0.74 13.85ZM12.11 14.35L12.81 14.35L15.39 7.69L16.11 7.69L16.11 7.18L13.57 7.18L13.57 7.69L14.74 7.69L12.64 13.38L12.60 13.38L10.47 7.69L11.65 7.69L11.65 7.18L8.79 7.18L8.79 7.69L9.52 7.69ZM19.99 14.52C21.50 14.52 22.40 13.61 22.78 12.71L22.40 12.49C21.99 13.24 21.31 13.85 20.12 13.85C18.69 13.85 17.74 12.84 17.74 11.06L17.74 10.63L22.93 10.63L22.93 10.37C22.93 8.41 21.80 7.01 19.96 7.01C18.10 7.01 16.77 8.47 16.77 10.77C16.77 13.13 18.00 14.52 19.99 14.52ZM17.74 10.05C17.74 8.58 18.56 7.53 19.96 7.53C21.34 7.53 22.01 8.61 22.01 10.04L22.01 10.14L17.74 10.14ZM24.26 14.35L27.34 14.35L27.34 13.85L26.24 13.85L26.24 9.21C26.24 8.15 27.17 7.62 28.13 7.62C29.37 7.62 29.99 8.33 29.99 9.80L29.99 13.85L28.88 13.85L28.88 14.35L31.96 14.35L31.96 13.85L30.86 13.85L30.86 9.72C30.86 7.92 30.13 7.01 28.42 7.01C27.20 7.01 26.50 7.67 26.26 8.30L26.21 8.30L26.21 7.04L24.26 7.36L24.26 7.74L25.37 7.90L25.37 13.85L24.26 13.85ZM35.11 14.41C35.67 14.41 36.50 14.32 36.85 14.20L36.85 13.80L34.92 13.80L34.92 7.73L36.85 7.73L36.85 7.18L34.92 7.18L34.92 5.25L34.41 5.25L34.19 6.58C34.10 7.00 33.96 7.18 33.28 7.18L33.08 7.18L33.08 7.73L34.05 7.73L34.05 13.40C34.05 14.14 34.30 14.41 35.11 14.41ZM37.90 10.44L41.45 10.44L41.45 9.72L37.90 9.72ZM44.66 5.29C45.07 5.29 45.29 5.03 45.29 4.69L45.29 4.63C45.29 4.30 45.07 4.03 44.66 4.03C44.25 4.03 44.03 4.30 44.03 4.63L44.03 4.69C44.03 5.03 44.25 5.29 44.66 5.29ZM43.12 14.35L46.20 14.35L46.20 13.85L45.09 13.85L45.09 7.04L43.12 7.36L43.12 7.74L44.23 7.90L44.23 13.85L43.12 13.85ZM50.61 13.97C49.10 13.97 48.36 12.91 48.36 11.38L48.36 10.15C48.36 8.62 49.10 7.56 50.61 7.56C52.12 7.56 52.86 8.62 52.86 10.15L52.86 11.38C52.86 12.91 52.12 13.97 50.61 13.97ZM50.61 14.52C52.58 14.52 53.84 13.12 53.84 10.77C53.84 8.41 52.58 7.01 50.61 7.01C48.64 7.01 47.38 8.41 47.38 10.77C47.38 13.12 48.64 14.52 50.61 14.52Z"></path></g><defs data-v-423bf9ae=""><linearGradient data-v-423bf9ae="" gradientTransform="rotate(25)" id="54ca2e75-f6ab-4e38-97f2-560702f2b592" x1="0%" y1="0%" x2="100%" y2="0%"><stop data-v-423bf9ae="" offset="0%" style="stop-color: rgb(235, 76, 0); stop-opacity: 1;"></stop><stop data-v-423bf9ae="" offset="100%" style="stop-color: rgb(242, 169, 0); stop-opacity: 1;"></stop></linearGradient></defs><g data-v-423bf9ae="" id="ac21e1ef-ef5e-4186-86b5-16f4e09e1392" transform="matrix(1.0079967392683604,0,0,1.0079967392683604,-0.0018553897099309324,-0.0028788262509991114)" stroke="none" fill="url(#54ca2e75-f6ab-4e38-97f2-560702f2b592)"><path d="M57.928 58.169l-.053 17.858-12.478-12.479V45.639zM76.027 57.875l-17.552.052-12.649-12.648h17.606zM76.027 32.125L63.432 44.721H45.707l12.648-12.648zM44.838 45.59v17.724L32.125 76.027l-.051-17.672zM57.928 31.712L45.397 44.243V26.452l12.478-12.478zM44.838 26.687v17.604L32.074 31.526l.051-17.552zM44.479 44.721h-17.91L13.974 32.125l17.858-.052zM44.36 45.279L31.712 57.927l-17.738-.052 12.595-12.596zM58.48 58.48h18.049v18.049H58.48zM76.527 13.474v18.042H58.914l-.002.002-.428-.002V13.474zM31.518 30.971l-.002.545H13.474V13.474h18.042v17.494zM13.471 58.48h18.05v18.049h-18.05zM64.127 45.002l12.757-12.757 12.758 12.757L76.884 57.76zM32.242 13.116L45 .36l12.757 12.757L45 25.874zM.358 45l12.757-12.757 12.757 12.756-12.757 12.757zM32.241 76.89l12.756-12.757L57.754 76.89 44.998 89.646z"></path></g><!----></svg>