<svg width="1244" height="897" viewBox="0 0 1244 897" fill="none" xmlns="http://www.w3.org/2000/svg">
<path d="M819.708 160.118C822.751 -10.1133 1243.71 0.117801 1243.71 0.117801L1244 897H104C104 897 -5.34534 789.884 0.207886 692.618C9.80701 524.488 229.134 752.055 300.708 599.618C335.314 525.914 309.151 463.091 339.708 387.618C408.81 216.94 884.626 542.688 879.708 358.618C877.234 266.023 818.052 252.731 819.708 160.118Z" fill="url(#paint0_linear_7_4)"/>
<path d="M1045.21 393.618C1127.56 375.42 1242.21 482.118 1242.21 482.118L1244 897H405C405 897 443.629 684.956 545.708 619.118C670.277 538.774 802.942 739.573 923.708 653.618C1015.02 588.629 935.772 417.801 1045.21 393.618Z" fill="url(#paint1_linear_7_4)"/>
<defs>
<linearGradient id="paint0_linear_7_4" x1="393.803" y1="129.513" x2="1230.01" y2="776.9" gradientUnits="userSpaceOnUse">
<stop stop-color="#EB4C00"/>
<stop offset="1" stop-color="#F2A900"/>
</linearGradient>
<linearGradient id="paint1_linear_7_4" x1="921.925" y1="463.315" x2="1296.6" y2="897.429" gradientUnits="userSpaceOnUse">
<stop stop-color="#EB4C00"/>
<stop offset="1" stop-color="#F2A900"/>
</linearGradient>
</defs>
</svg>
