<svg width="1292" height="1921" viewBox="0 0 1292 1921" fill="none" xmlns="http://www.w3.org/2000/svg">
<path d="M1291.71 0.117801C1291.71 0.117801 870.751 -10.1133 867.708 160.118C866.052 252.731 925.234 266.023 927.708 358.618C932.626 542.688 456.81 216.94 387.708 387.618C357.151 463.091 383.315 525.914 348.708 599.618C277.134 752.055 57.8071 524.488 48.208 692.618C42.6548 789.884 154.094 807.462 151 896.618C147.469 998.37 9.50584 1008.09 0.499984 1109.5C-17.3419 1310.42 478.281 911.545 517 1109.5C537.492 1214.27 384.707 1266.16 422.5 1366C476.42 1508.44 692.821 1460.2 812.5 1366C1085.46 1151.15 1255.31 1756.98 1292 1904.82L1292 1921L1299.5 1936.5C1299.5 1936.5 1296.97 1924.87 1292 1904.82L1291.71 0.117801Z" fill="url(#paint0_linear_17_32)"/>
<path d="M1094.76 294.089C1177.12 275.891 1291.76 382.589 1291.76 382.589V1259.97C1291.76 1259.97 1089.58 842.533 927.763 940.471C860.65 981.092 878.576 1064.03 811.055 1103.97C652.998 1197.46 458.555 979.471 454.763 797.089C447.406 675.843 493.184 585.427 595.263 519.589C719.832 439.244 852.497 640.043 973.263 554.089C1064.57 489.1 985.327 318.271 1094.76 294.089Z" fill="url(#paint1_linear_17_32)"/>
<defs>
<linearGradient id="paint0_linear_17_32" x1="1749.69" y1="760.099" x2="-814.127" y2="1343.4" gradientUnits="userSpaceOnUse">
<stop offset="0.187256" stop-color="#EB4C00"/>
<stop offset="0.604907" stop-color="#F2A900"/>
</linearGradient>
<linearGradient id="paint1_linear_17_32" x1="915.5" y1="529" x2="1508.5" y2="909" gradientUnits="userSpaceOnUse">
<stop stop-color="#EB4C00"/>
<stop offset="1" stop-color="#F2A900"/>
</linearGradient>
</defs>
</svg>
